HIERARCHY
ROOT Hips
{
	OFFSET 0.000000 0.000000 0.000000
	CHANNELS 6 Xposition Yposition Zposition Xrotation Yrotation Zrotation
	JOINT LeftUpLeg_virtual
	{
		OFFSET 0.000000 0.000000 0.000000
		CHANNELS 3 Xrotation Yrotation Zrotation
		JOINT LeftUpLeg
		{
			OFFSET 13.026900 -6.336304 -1.092800
			CHANNELS 3 Xrotation Yrotation Zrotation
			JOINT LeftLeg
			{
				OFFSET 0.524474 -46.096886 9.782700
				CHANNELS 3 Xrotation Yrotation Zrotation
				JOINT LeftFoot
				{
					OFFSET -0.524474 -53.427422 -12.948200
					CHANNELS 3 Xrotation Yrotation Zrotation
					JOINT LeftToeBase
					{
						OFFSET 0.192200 -14.009700 16.364100
						CHANNELS 3 Xrotation Yrotation Zrotation
						JOINT LeftToe_End
						{
							OFFSET -1.784700 -0.561700 9.474800
							CHANNELS 3 Xrotation Yrotation Zrotation
							End Site
							{
								OFFSET 0 0 0
							}
						}
					}
				}
			}
		}
	}
	JOINT RightUpLeg_virtual
	{
		OFFSET 0.000000 0.000000 0.000000
		CHANNELS 3 Xrotation Yrotation Zrotation
		JOINT RightUpLeg
		{
			OFFSET -12.883000 -6.336304 -1.092800
			CHANNELS 3 Xrotation Yrotation Zrotation
			JOINT RightLeg
			{
				OFFSET -0.524587 -46.096825 9.782800
				CHANNELS 3 Xrotation Yrotation Zrotation
				JOINT RightFoot
				{
					OFFSET 0.524587 -53.427383 -12.948300
					CHANNELS 3 Xrotation Yrotation Zrotation
					JOINT RightToeBase
					{
						OFFSET -0.192200 -14.009700 16.364100
						CHANNELS 3 Xrotation Yrotation Zrotation
						JOINT RightToe_End
						{
							OFFSET 1.784700 -0.561700 9.474800
							CHANNELS 3 Xrotation Yrotation Zrotation
							End Site
							{
								OFFSET 0 0 0
							}
						}
					}
				}
			}
		}
	}
	JOINT Spine_virtual
	{
		OFFSET 0.000000 0.000000 0.000000
		CHANNELS 3 Xrotation Yrotation Zrotation
		JOINT Spine
		{
			OFFSET 0.072000 7.257294 -0.789700
			CHANNELS 3 Xrotation Yrotation Zrotation
			JOINT Spine1
			{
				OFFSET 0.000000 12.508769 -0.658067
				CHANNELS 3 Xrotation Yrotation Zrotation
				JOINT Spine1_split
				{
					OFFSET 0.000000 12.508769 -0.658067
					CHANNELS 3 Xrotation Yrotation Zrotation
					JOINT Spine2
					{
						OFFSET 0.000000 12.508769 -0.658067
						CHANNELS 3 Xrotation Yrotation Zrotation
						JOINT Neck_virtual
						{
							OFFSET 0.000000 0.000000 0.000000
							CHANNELS 3 Xrotation Yrotation Zrotation
							JOINT Neck
							{
								OFFSET 0.000000 14.033295 7.520400
								CHANNELS 3 Xrotation Yrotation Zrotation
								JOINT Head
								{
									OFFSET 0.000000 8.198502 5.703100
									CHANNELS 3 Xrotation Yrotation Zrotation
									JOINT HeadTop_End
									{
										OFFSET 0.000000 17.760803 13.332701
										CHANNELS 3 Xrotation Yrotation Zrotation
										End Site
										{
											OFFSET 0 0 0
										}
									}
								}
							}
						}
						JOINT LeftShoulder_virtual
						{
							OFFSET 0.000000 0.000000 0.000000
							CHANNELS 3 Xrotation Yrotation Zrotation
							JOINT LeftShoulder
							{
								OFFSET 6.292450 5.785301 -0.669000
								CHANNELS 3 Xrotation Yrotation Zrotation
								JOINT LeftShoulder_split
								{
									OFFSET 6.292450 5.785301 -0.669000
									CHANNELS 3 Xrotation Yrotation Zrotation
									JOINT LeftArm
									{
										OFFSET 13.907140 -6.093903 1.965100
										CHANNELS 3 Xrotation Yrotation Zrotation
										JOINT LeftForeArm
										{
											OFFSET 34.140198 0.000000 0.000000
											CHANNELS 3 Xrotation Yrotation Zrotation
											JOINT LeftHand
											{
												OFFSET 40.960209 0.000000 0.000000
												CHANNELS 3 Xrotation Yrotation Zrotation
												End Site
												{
													OFFSET 0 0 0
												}
											}
										}
									}
								}
							}
						}
						JOINT RightShoulder_virtual
						{
							OFFSET 0.000000 0.000000 0.000000
							CHANNELS 3 Xrotation Yrotation Zrotation
							JOINT RightShoulder
							{
								OFFSET -6.292450 5.785301 -0.669000
								CHANNELS 3 Xrotation Yrotation Zrotation
								JOINT RightShoulder_split
								{
									OFFSET -6.292450 5.785301 -0.669000
									CHANNELS 3 Xrotation Yrotation Zrotation
									JOINT RightArm
									{
										OFFSET -13.907140 -6.093903 1.965100
										CHANNELS 3 Xrotation Yrotation Zrotation
										JOINT RightForeArm
										{
											OFFSET -34.140198 0.000000 0.000000
											CHANNELS 3 Xrotation Yrotation Zrotation
											JOINT RightHand
											{
												OFFSET -40.960209 0.000000 0.000000
												CHANNELS 3 Xrotation Yrotation Zrotation
												End Site
												{
													OFFSET 0 0 0
												}
											}
										}
									}
								}
							}
						}
					}
				}
			}
		}
	}
}
MOTION
Frames: 6
Frame Time: 0.03333333
2.678111 119.210068 -4.430634 0.000000 0.000000 0.000000 -0.782297 -15.156956 -0.556270 -20.989047 21.142847 16.590485 27.368459 9.885713 0.031331 5.714360 2.294143 -4.603868 -5.037754 0.010525 -0.127188 0.000000 0.000000 0.000000 -0.166375 -14.239897 -1.031131 -10.225971 -3.950537 1.437527 20.564212 1.614768 -0.863316 -3.300843 0.293658 -2.657875 -1.691080 -0.769040 1.212326 0.000000 0.000000 0.000000 -1.972508 -18.671620 -1.852197 2.918491 -0.580438 0.021560 0.721428 -0.264923 3.176455 -0.250574 1.655194 -0.173077 0.000000 0.000000 0.000000 0.826930 -1.621480 2.713377 4.166618 -6.979016 -2.235501 5.714628 21.179947 -9.619221 0.000000 0.000000 0.000000 0.188270 -1.345398 2.909151 4.678244 6.679398 2.330820 5.631917 7.078417 -2.661429 -6.448390 -40.770683 -68.336405 -13.089745 -26.316774 -2.815083 0.000000 0.000000 0.000000 0.484018 -0.975833 3.341543 -1.719274 -1.603605 2.735836 -1.518621 3.979890 1.357231 7.070669 7.791268 78.298850 -6.203271 27.915854 5.147353 0.000000 0.000000 0.000000 
3.181942 117.923470 -5.003044 0.000000 0.000000 0.000000 -0.670572 -15.176072 -0.893379 -21.323161 21.880547 17.146990 27.605791 9.228647 -0.369956 4.660770 2.160737 -4.305988 -4.085100 -0.030523 -0.231797 0.000000 0.000000 0.000000 -0.052173 -14.585039 -1.245855 -11.799884 -3.912533 1.178581 19.039337 1.759112 -0.433608 -1.670260 1.316103 -1.946859 -4.077763 -0.800769 0.967302 0.000000 0.000000 0.000000 -2.135250 -19.695776 -2.353134 3.926730 -0.850967 0.097744 1.111470 -0.456366 3.149703 0.514273 1.205408 0.022641 0.000000 0.000000 0.000000 1.418834 -1.624501 2.706274 3.329248 -6.541235 -1.929229 4.632049 21.125919 -9.495105 0.000000 0.000000 0.000000 0.537585 -1.342115 2.837825 4.938264 6.670303 2.913502 5.877523 5.985266 -0.639222 -4.466449 -40.787393 -68.558502 -11.143947 -24.978400 -2.487313 0.000000 0.000000 0.000000 0.868445 -1.046697 3.336530 -1.520379 -1.090173 2.575147 -1.437475 6.081920 0.368708 6.282659 8.772344 77.300980 -4.784910 26.121577 4.103473 0.000000 0.000000 0.000000 
3.587969 116.393745 -5.295979 0.000000 0.000000 0.000000 -0.807555 -16.473947 -1.940393 -22.796105 24.433909 19.318242 28.390366 7.738423 -0.957454 2.828750 1.997095 -5.279314 -3.906349 -0.054189 -0.342508 0.000000 0.000000 0.000000 -0.360555 -16.487138 -2.215060 -14.335428 -4.566330 0.606676 18.417819 2.289450 0.321817 1.424143 3.633769 -0.260767 -5.509030 -0.587442 0.165978 0.000000 0.000000 0.000000 -2.453453 -21.591674 -3.272194 5.524584 -1.367452 0.296831 1.717513 -0.773782 2.812489 0.757421 1.069972 -0.142331 0.000000 0.000000 0.000000 2.170105 -1.734666 2.436975 1.947221 -5.715243 -1.941667 2.024203 22.249403 -9.492420 0.000000 0.000000 0.000000 1.287390 -1.421295 2.339208 5.635550 6.169852 4.031609 5.814705 5.695405 1.724700 1.159427 -42.315307 -66.672618 -11.888894 -29.647573 -4.207448 0.000000 0.000000 0.000000 1.773329 -1.200809 2.956954 -1.166139 -0.418990 2.240518 -0.788205 6.726056 -0.680056 4.179640 11.650550 75.829662 -2.841362 24.831836 3.064555 0.000000 0.000000 0.000000 
3.892149 115.205643 -5.359833 0.000000 0.000000 0.000000 -1.075114 -19.181917 -3.361598 -25.413011 28.526160 23.070866 29.303899 5.888216 -1.694101 1.126127 1.910779 -7.289379 -4.920987 -0.063233 -0.250645 0.000000 0.000000 0.000000 -0.756940 -19.645939 -3.709537 -17.219863 -5.682700 -0.239448 18.805690 2.999300 1.084560 4.565050 6.655872 2.035624 -5.578014 -0.195187 -0.877120 0.000000 0.000000 0.000000 -2.556648 -24.114574 -4.454283 7.262794 -2.023380 0.542459 2.453896 -1.166674 2.276758 0.544302 1.121132 -0.440655 0.000000 0.000000 0.000000 3.070444 -1.951860 1.999926 0.297568 -4.541431 -2.194159 -1.455245 24.141541 -9.417740 0.000000 0.000000 0.000000 2.246022 -1.585648 1.590762 6.666321 5.733431 5.933237 5.545195 5.303922 3.412448 10.651892 -44.374062 -62.654848 -16.401364 -41.172671 -9.115553 0.000000 0.000000 0.000000 2.983719 -1.439016 2.336660 -0.712604 0.204597 1.883407 0.181538 5.651196 -1.595348 1.211132 15.133247 74.179789 -0.941174 25.594022 2.338620 0.000000 0.000000 0.000000 
4.073656 114.359764 -4.986042 0.000000 0.000000 0.000000 -1.385678 -23.050874 -4.868161 -28.943070 33.474419 28.010718 30.517975 4.197075 -2.408838 0.082773 2.473268 -9.321879 -5.864874 -0.108613 -0.103409 0.000000 0.000000 0.000000 -1.157900 -23.600680 -5.384081 -19.519415 -6.962632 -1.256690 19.944330 3.340858 1.457142 6.237978 8.852933 3.795250 -5.051628 0.173068 -1.635820 0.000000 0.000000 0.000000 -2.338222 -27.187734 -5.672846 8.741043 -2.680508 0.740156 3.244619 -1.604957 1.681123 0.191519 1.564201 -0.778180 0.000000 0.000000 0.000000 3.965957 -2.222962 1.534319 -1.091886 -3.195211 -2.386555 -4.923185 26.510203 -9.223663 0.000000 0.000000 0.000000 3.237359 -1.775667 0.819007 7.979900 5.737994 8.438927 4.942412 4.025232 4.360295 23.561755 -45.526363 -57.359498 -29.182011 -57.806131 -22.102998 0.000000 0.000000 0.000000 4.288292 -1.719136 1.647096 -0.145894 0.755338 1.571670 1.131404 3.563032 -2.440453 -1.871599 17.839003 72.447489 0.469298 29.872553 2.047849 0.000000 0.000000 0.000000 
4.141184 113.670982 -4.647442 0.000000 0.000000 0.000000 -1.520688 -27.674070 -6.007619 -32.531645 38.549478 32.875446 31.717377 3.448701 -2.935018 -1.409048 4.286644 -10.010575 -5.229975 -0.206119 -0.107375 0.000000 0.000000 0.000000 -1.139973 -27.859257 -6.608189 -20.705654 -8.144097 -2.626252 21.325828 2.920197 1.193029 5.867977 9.119118 4.418053 -4.536285 0.376622 -1.665357 0.000000 0.000000 0.000000 -1.989616 -30.658192 -6.692096 9.635843 -3.203502 0.826152 3.994230 -2.047380 1.168050 0.428039 2.104927 -0.807281 0.000000 0.000000 0.000000 4.646140 -2.504682 1.131047 -2.066194 -1.941061 -2.315104 -7.748881 28.794151 -8.863242 0.000000 0.000000 0.000000 4.068934 -1.927738 0.250488 9.438778 6.331729 11.264900 3.608631 1.646981 4.461516 38.079128 -45.354519 -52.993754 -67.797291 -71.107269 -60.924570 0.000000 0.000000 0.000000 5.491700 -1.966584 1.058935 0.496842 1.288183 1.448212 1.909514 1.384008 -3.198684 -3.919500 18.574863 70.316442 1.156896 38.063425 2.172397 0.000000 0.000000 0.000000 
